<svg width="1422" height="1027" viewBox="0 0 1422 1027" fill="none" xmlns="http://www.w3.org/2000/svg">
<g clip-path="url(#clip0_121_40)">
<path d="M803.321 577.757C803.321 593.488 790.561 606.24 774.819 606.24H645.629C629.887 606.24 617.126 593.488 617.126 577.757V448.653C617.126 432.922 629.887 420.17 645.629 420.17H774.819C790.561 420.17 803.321 432.922 803.321 448.653V577.757V577.757ZM919.596 644.559V381.851C919.596 338.832 884.698 303.973 841.666 303.973H578.782C535.734 303.973 500.852 338.848 500.852 381.851V644.559C500.852 687.578 535.75 722.437 578.782 722.437H841.666C884.714 722.437 919.596 687.578 919.596 644.559Z" fill="white"/>
<path d="M1346.51 588.57C1388.16 588.57 1421.92 554.828 1421.92 513.205C1421.92 471.582 1388.16 437.84 1346.51 437.84H1225.96V358.224H1346.51C1388.16 358.224 1421.92 324.482 1421.92 282.859C1421.92 241.236 1388.16 207.494 1346.51 207.494H1225.96V199.365C1225.96 89.2652 1136.64 0 1026.45 0H398.377C288.188 0 198.862 89.2652 198.862 199.381V207.51H76.1296C34.4786 207.51 0.713867 241.252 0.713867 282.875C0.713867 324.498 34.4786 358.24 76.1296 358.24H198.862V437.856H76.1296C34.4786 437.856 0.713867 471.598 0.713867 513.221C0.713867 554.844 34.4786 588.586 76.1296 588.586H198.862V668.202H76.1296C34.4786 668.202 0.713867 701.944 0.713867 743.567C0.713867 785.19 34.4786 818.932 76.1296 818.932H198.862V827.061C198.862 937.176 288.188 1026.44 398.377 1026.44H1026.45C1136.64 1026.44 1225.96 937.176 1225.96 827.061V818.932H1346.51C1388.16 818.932 1421.92 785.19 1421.92 743.567C1421.92 701.944 1388.16 668.202 1346.51 668.202H1225.96V588.586H1346.51V588.57ZM1068.7 783.809C1068.7 831.001 1030.42 869.258 983.198 869.258H441.643C394.418 869.258 356.136 831.001 356.136 783.809V242.617C356.136 195.425 394.418 157.168 441.643 157.168H983.198C1030.42 157.168 1068.7 195.425 1068.7 242.617V783.809Z" fill="white"/>
</g>
<defs>
<clipPath id="clip0_121_40">
<rect width="1422" height="1027" fill="white"/>
</clipPath>
</defs>
</svg>
